
<svg width="830px" height="1603px" viewBox="-1 -1 830 1603" version="1.1" xmlns="http://www.w3.org/2000/svg" xmlns:xlink="http://www.w3.org/1999/xlink">
    <!-- Generator: Sketch 42 (36781) - http://www.bohemiancoding.com/sketch -->
    <defs></defs>
    <g id="Group" opacity="0.25" stroke="none" stroke-width="1" fill="none" fill-rule="evenodd">
        <g transform="translate(414.000000, 801.000000) rotate(-270.000000) translate(-414.000000, -801.000000) translate(-387.000000, 387.000000)" id="Oval" fill-rule="nonzero" fill="#FFFFFF">
            <circle cx="736.67" cy="428.49" r="2.03"></circle>
            <circle cx="780.49" cy="289.85" r="2.03"></circle>
            <circle cx="559.24" cy="199.33" r="2.03"></circle>
            <circle cx="758.22" cy="139.71" r="2.03"></circle>
        

            <circle cx="709.67" cy="497.16" r="1.02"></circle>
            <circle cx="522.91" cy="356.36" r="1.02"></circle>
            <circle cx="627.78" cy="622.15" r="1.02"></circle>
            <circle cx="655.08" cy="613.53" r="1.02"></circle>
            <circle cx="745.59" cy="650.89" r="1.02"></circle>

            <circle cx="495.61" cy="53.2" r="1.02"></circle>
            <circle cx="468.32" cy="61.82" r="1.02"></circle>
            <circle cx="377.81" cy="24.47" r="1.02"></circle>
            <circle cx="384.99" cy="54.64" r="1.02"></circle>
            <circle cx="502.08" cy="130.07" r="1.02"></circle>
            <circle cx="971.51" cy="306.5" r="2.03"></circle>
            <circle cx="904.46" cy="177.47" r="2.03"></circle>
            <circle cx="684.02" cy="269.92" r="2.03"></circle>
            <circle cx="782.56" cy="87.06" r="2.03"></circle>
            <circle cx="1038.55" cy="259.76" r="1.02"></circle>
            <circle cx="1052.78" cy="231.32" r="1.02"></circle>
            <circle cx="1150.47" cy="189.19" r="1.02"></circle>
            <circle cx="1116.78" cy="177.47" r="1.02"></circle>
            <circle cx="1255.95" cy="257.73" r="1.02"></circle>
            <circle cx="1348.39" cy="251.64" r="1.02"></circle>
            <circle cx="980.65" cy="208.97" r="1.02"></circle>
            <circle cx="883.13" cy="250.62" r="1.02"></circle>
            <circle cx="938.16" cy="290.78" r="1.02"></circle>
            <circle cx="893.29" cy="235.38" r="1.02"></circle>
            <circle cx="852.65" cy="236.4" r="1.02"></circle>
            <circle cx="868.91" cy="127.69" r="1.02"></circle>
            <circle cx="928.84" cy="75.88" r="1.02"></circle>
            <circle cx="876.02" cy="61.66" r="1.02"></circle>
            <circle cx="698.24" cy="186.62" r="1.02"></circle>
            <circle cx="723.64" cy="137.85" r="1.02"></circle>
            <circle cx="863.83" cy="115.5" r="1.02"></circle>
            <circle cx="849.61" cy="301.42" r="1.02"></circle>
            <circle cx="849.61" cy="344.09" r="1.02"></circle>
            <circle cx="973.54" cy="358.31" r="1.02"></circle>
            <circle cx="1001.98" cy="374.56" r="1.02"></circle>
            <circle cx="1032.46" cy="520.86" r="1.02"></circle>
            <circle cx="1045.67" cy="495.46" r="1.02"></circle>
            <circle cx="1136.08" cy="457.87" r="1.02"></circle>
            <circle cx="1109.66" cy="441.62" r="1.02"></circle>
            <circle cx="523.52" cy="237.41" r="1.02"></circle>
            <circle cx="433.11" cy="275" r="1.02"></circle>
            <circle cx="459.52" cy="291.26" r="1.02"></circle>
            <circle cx="1435.48" cy="652.45" r="2.03"></circle>
            <circle cx="1563.93" cy="624.02" r="2.03"></circle>
            <circle cx="1457.83" cy="801.79" r="2.03"></circle>
            <circle cx="1308.5" cy="379.48" r="1.02"></circle>
            <circle cx="1278.33" cy="389.54" r="1.02"></circle>
            <circle cx="1187.82" cy="352.18" r="1.02"></circle>
            <circle cx="1195.01" cy="382.35" r="1.02"></circle>
            <circle cx="1313.53" cy="456.35" r="1.02"></circle>
            <circle cx="1505.58" cy="614.86" r="1.02"></circle>
            <circle cx="1380.3" cy="442.61" r="1.02"></circle>
            <circle cx="1487.29" cy="617.91" r="1.02"></circle>
            <circle cx="1428.37" cy="711.38" r="1.02"></circle>
            <circle cx="1378.6" cy="678.87" r="1.02"></circle>
            <circle cx="1349.14" cy="705.28" r="1.02"></circle>
            <circle cx="1376.56" cy="753.03" r="1.02"></circle>
            <circle cx="1497.42" cy="671.86" r="1.02"></circle>
            <circle cx="1538.08" cy="806.87" r="1.02"></circle>
            <circle cx="1423.29" cy="723.57" r="1.02"></circle>
            <circle cx="1455.8" cy="691.06" r="1.02"></circle>
            <circle cx="1432.44" cy="739.82" r="1.02"></circle>
            <circle cx="1564.5" cy="602.67" r="1.02"></circle>
            <circle cx="1501.73" cy="453.47" r="1.02"></circle>
            <circle cx="1424.15" cy="355.77" r="1.02"></circle>
            <circle cx="1415.53" cy="324.16" r="1.02"></circle>
            <circle cx="1497.42" cy="199.17" r="1.02"></circle>
            <circle cx="1470.12" cy="207.79" r="1.02"></circle>
            <circle cx="1379.62" cy="170.43" r="1.02"></circle>
            <circle cx="1386.8" cy="200.6" r="1.02"></circle>
            <circle cx="1503.88" cy="276.03" r="1.02"></circle>
            <circle cx="1308.5" cy="214.25" r="1.02"></circle>
            <circle cx="1307.07" cy="238.68" r="1.02"></circle>
            <circle cx="1245.29" cy="162.53" r="1.02"></circle>
            <circle cx="1264.68" cy="265.26" r="1.02"></circle>
            <circle cx="1216.56" cy="255.92" r="1.02"></circle>
            <circle cx="1069.42" cy="184.84" r="1.02"></circle>
            <circle cx="1042.13" cy="193.46" r="1.02"></circle>
            <circle cx="951.62" cy="156.11" r="1.02"></circle>
            <circle cx="958.8" cy="186.28" r="1.02"></circle>
            <circle cx="1421.28" cy="114.4" r="1.02"></circle>
            <circle cx="1478.45" cy="183.66" r="2.03"></circle>
            <circle cx="1546.98" cy="606.48" r="1.02"></circle>
            <circle cx="1574.28" cy="597.86" r="1.02"></circle>
            <circle cx="1540.52" cy="529.62" r="1.02"></circle>
            <circle cx="1151.66" cy="516.86" r="2.03"></circle>
            <circle cx="1311.55" cy="764.21" r="2.03"></circle>
            <circle cx="1531.99" cy="671.76" r="2.03"></circle>
            <circle cx="1242.91" cy="728.65" r="2.03"></circle>
            <circle cx="1585.26" cy="728.65" r="2.03"></circle>
            <circle cx="1086.65" cy="561.56" r="1.02"></circle>
          
            <circle cx="1196.36" cy="745.44" r="1.02"></circle>
            <circle cx="1015.54" cy="379.71" r="1.02"></circle>
            <circle cx="1151.66" cy="350.24" r="1.02"></circle>
            <circle cx="972.7" cy="415.74" r="1.02"></circle>
            <circle cx="888.55" cy="452.85" r="1.02"></circle>
            <circle cx="974.9" cy="511.78" r="1.02"></circle>
            <circle cx="934.27" cy="539.21" r="1.02"></circle>
            <circle cx="920.05" cy="244.59" r="1.02"></circle>
            <circle cx="906.84" cy="269.99" r="1.02"></circle>
            <circle cx="842.84" cy="323.83" r="1.02"></circle>
            <circle cx="953.4" cy="222.71" r="1.02"></circle>
            <circle cx="842.84" cy="212.08" r="1.02"></circle>
            <circle cx="978.97" cy="294.37" r="1.02"></circle>
            <circle cx="1354.83" cy="339.07" r="2.03"></circle>
            <circle cx="1287.78" cy="210.05" r="2.03"></circle>
            <circle cx="1067.34" cy="302.5" r="2.03"></circle>
            <circle cx="1131.34" cy="312.65" r="2.03"></circle>
            <circle cx="1165.88" cy="119.63" r="2.03"></circle>
            <circle cx="1421.88" cy="292.34" r="1.02"></circle>
            <circle cx="1436.1" cy="263.89" r="1.02"></circle>
            <circle cx="1526.51" cy="226.3" r="1.02"></circle>
            <circle cx="1501.11" cy="231.38" r="1.02"></circle>
            <circle cx="1590.51" cy="239.51" r="1.02"></circle>
            <circle cx="1500.1" cy="210.05" r="1.02"></circle>
            <circle cx="1363.97" cy="241.54" r="1.02"></circle>
            <circle cx="1266.45" cy="283.19" r="1.02"></circle>
            <circle cx="1277.63" cy="274.05" r="1.02"></circle>
            <circle cx="1010.28" cy="135.34" r="1.02"></circle>
            <circle cx="1235.98" cy="268.97" r="1.02"></circle>
            <circle cx="1252.23" cy="160.26" r="1.02"></circle>
            <circle cx="1310.13" cy="148.07" r="1.02"></circle>
            <circle cx="1312.17" cy="108.45" r="1.02"></circle>
            <circle cx="1259.34" cy="94.23" r="1.02"></circle>
            <circle cx="1081.57" cy="219.19" r="1.02"></circle>
            <circle cx="1106.96" cy="170.42" r="1.02"></circle>
            <circle cx="1247.15" cy="148.07" r="1.02"></circle>
            <circle cx="1247.15" cy="193.79" r="1.02"></circle>
            <circle cx="1229.88" cy="142.99" r="1.02"></circle>
     
            <circle cx="1529.56" cy="559.53" r="1.02"></circle>
            <circle cx="595.64" cy="261.8" r="1.02"></circle>
            <circle cx="228.08" cy="231.86" r="2.03"></circle>
            <circle cx="210.81" cy="235.92" r="2.03"></circle>
            <circle cx="88.91" cy="226.78" r="2.03"></circle>
            <circle cx="95" cy="348.69" r="2.03"></circle>
            <circle cx="101.1" cy="625.02" r="2.03"></circle>
            <circle cx="388.19" cy="518.49" r="1.02"></circle>
            <circle cx="376.7" cy="486.88" r="1.02"></circle>
            <circle cx="302.71" cy="342.49" r="1.02"></circle>
            <circle cx="355.15" cy="325.97" r="1.02"></circle>
            <circle cx="328.57" cy="530.71" r="1.02"></circle>
            <circle cx="298.4" cy="560.88" r="1.02"></circle>
            <circle cx="375.98" cy="658.58" r="1.02"></circle>
            <circle cx="384.6" cy="690.18" r="1.02"></circle>
            <circle cx="197.83" cy="549.38" r="1.02"></circle>
            <circle cx="296.24" cy="738.32" r="1.02"></circle>
            <circle cx="142.23" cy="603.56" r="2.03"></circle>
            <circle cx="98.41" cy="742.2" r="2.03"></circle>
            <circle cx="64.23" cy="588.18" r="1.02"></circle>
            <circle cx="34.06" cy="598.23" r="1.02"></circle>

            <circle cx="62.79" cy="447.37" r="1.02"></circle>
            <circle cx="1.02" cy="371.23" r="1.02"></circle>
            <circle cx="20.41" cy="473.95" r="1.02"></circle>
            <circle cx="2.76" cy="444.3" r="1.02"></circle>
            <circle cx="170.54" cy="246.23" r="1.02"></circle>
            <circle cx="143.24" cy="254.85" r="1.02"></circle>
            <circle cx="52.73" cy="217.5" r="1.02"></circle>
            <circle cx="59.92" cy="247.67" r="1.02"></circle>
            <circle cx="177" cy="323.1" r="1.02"></circle>
            <circle cx="358.95" cy="462.95" r="2.03"></circle>
            <circle cx="295.2" cy="179.96" r="1.02"></circle>
            <circle cx="265.75" cy="206.54" r="1.02"></circle>
            <circle cx="293.05" cy="253.96" r="1.02"></circle>
            <circle cx="339.74" cy="224.5" r="1.02"></circle>
            <circle cx="372.06" cy="192.18" r="1.02"></circle>
            <circle cx="348.36" cy="240.31" r="1.02"></circle>
            <circle cx="317.08" cy="122.28" r="1.02"></circle>
            <circle cx="257.46" cy="134.49" r="1.02"></circle>
            <circle cx="227.29" cy="164.66" r="1.02"></circle>
            <circle cx="304.87" cy="262.36" r="1.02"></circle>
            <circle cx="313.49" cy="293.97" r="1.02"></circle>
            <circle cx="126.72" cy="153.17" r="1.02"></circle>
            <circle cx="225.13" cy="342.1" r="1.02"></circle>
            <circle cx="96.56" cy="308.34" r="1.02"></circle>
            <circle cx="108.05" cy="339.95" r="1.02"></circle>
            <circle cx="156.18" cy="296.13" r="1.02"></circle>
            <circle cx="186.35" cy="265.95" r="1.02"></circle>
            <circle cx="108.77" cy="168.26" r="1.02"></circle>
            <circle cx="100.15" cy="136.65" r="1.02"></circle>
            <circle cx="286.91" cy="277.45" r="1.02"></circle>
            <circle cx="307.14" cy="325.8" r="1.02"></circle>
            <circle cx="292.92" cy="354.25" r="1.02"></circle>
            <circle cx="209.62" cy="127.69" r="1.02"></circle>
            <circle cx="236.03" cy="143.95" r="1.02"></circle>
            <circle cx="190.32" cy="208.97" r="1.02"></circle>
            <circle cx="206.57" cy="227.25" r="1.02"></circle>
            <circle cx="109.05" cy="217.09" r="1.02"></circle>
            <circle cx="195.4" cy="276.02" r="1.02"></circle>
            <circle cx="154.76" cy="303.45" r="1.02"></circle>
            <circle cx="211.65" cy="405.04" r="1.02"></circle>
            <circle cx="198.44" cy="430.44" r="1.02"></circle>
            <circle cx="108.03" cy="468.03" r="1.02"></circle>
            <circle cx="134.45" cy="484.28" r="1.02"></circle>
            <circle cx="1462.91" cy="641.28" r="1.02"></circle>
            <circle cx="1315.71" cy="469.37" r="2.03"></circle>
            <circle cx="1331.09" cy="389.33" r="1.02"></circle>
        
            <circle cx="1511.39" cy="578.26" r="1.02"></circle>
            <circle cx="1502.77" cy="550.96" r="1.02"></circle>
            <circle cx="1509.95" cy="467.63" r="1.02"></circle>
            <circle cx="1496.3" cy="389.33" r="1.02"></circle>
            <circle cx="1471.88" cy="387.89" r="1.02"></circle>
    
            <circle cx="1600.05" cy="662.61" r="1.02"></circle>
            <circle cx="1600.05" cy="662.61" r="1.02"></circle>
            <circle cx="1600.05" cy="662.61" r="1.02"></circle>
            <circle cx="1600.05" cy="662.61" r="1.02"></circle>
            <circle cx="1600.05" cy="662.61" r="1.02"></circle>
            <circle cx="1600.05" cy="662.61" r="1.02"></circle>
            <circle cx="1600.05" cy="662.61" r="1.02"></circle>
            <circle cx="1600.05" cy="662.61" r="1.02"></circle>
            <circle cx="1600.05" cy="662.61" r="1.02"></circle>
            <circle cx="1600.05" cy="662.61" r="1.02"></circle>
            <circle cx="1600.05" cy="662.61" r="1.02"></circle>
            <circle cx="1600.05" cy="662.61" r="1.02"></circle>
            <circle cx="1600.05" cy="662.61" r="1.02"></circle>
            <circle cx="1600.05" cy="662.61" r="1.02"></circle>
            <circle cx="1600.05" cy="662.61" r="1.02"></circle>
            <circle cx="1600.05" cy="662.61" r="1.02"></circle>
            <circle cx="491.18" cy="640.26" r="1.02"></circle>
            <circle cx="32.02" cy="811.95" r="1.02"></circle>
            <circle cx="251.44" cy="51.02" r="1.02"></circle>
            <circle cx="1403.42" cy="531.56" r="2.03"></circle>
            <circle cx="698.42" cy="9.37" r="1.02"></circle>
            <circle cx="1354.39" cy="826.72" r="1.02"></circle>
        </g>
    </g>
</svg>
